<mxfile host="app.diagrams.net" modified="2023-06-20T10:58:25.088Z" agent="Mozilla/5.0 (Windows NT 10.0; Win64; x64) AppleWebKit/537.36 (KHTML, like Gecko) Chrome/114.0.0.0 Safari/537.36" version="21.3.8" etag="4ttK7jv8Xm4WWyCcllzg" type="device">
  <diagram id="4R_t6VcLUFwRrXwdE5aF" name="Page-1">
    <mxGraphModel dx="1707" dy="494" grid="1" gridSize="10" guides="1" tooltips="1" connect="1" arrows="1" fold="1" page="1" pageScale="1" pageWidth="827" pageHeight="1169" math="0" shadow="0">
      <root>
        <mxCell id="0" />
        <mxCell id="1" parent="0" />
        <mxCell id="vjnPpZyXJwMaVfc0JTW0-1" value="RealityShow" style="whiteSpace=wrap;html=1;align=center;fillColor=#dae8fc;strokeColor=#6c8ebf;" vertex="1" parent="1">
          <mxGeometry x="100" y="220" width="100" height="40" as="geometry" />
        </mxCell>
        <mxCell id="vjnPpZyXJwMaVfc0JTW0-2" value="Producer" style="whiteSpace=wrap;html=1;align=center;fillColor=#dae8fc;strokeColor=#6c8ebf;" vertex="1" parent="1">
          <mxGeometry x="500" y="220" width="100" height="40" as="geometry" />
        </mxCell>
        <mxCell id="vjnPpZyXJwMaVfc0JTW0-3" value="TVChannel" style="whiteSpace=wrap;html=1;align=center;fillColor=#dae8fc;strokeColor=#6c8ebf;" vertex="1" parent="1">
          <mxGeometry x="100" y="440" width="100" height="40" as="geometry" />
        </mxCell>
        <mxCell id="vjnPpZyXJwMaVfc0JTW0-4" value="User" style="whiteSpace=wrap;html=1;align=center;fillColor=#dae8fc;strokeColor=#6c8ebf;" vertex="1" parent="1">
          <mxGeometry x="500" y="440" width="100" height="40" as="geometry" />
        </mxCell>
        <mxCell id="vjnPpZyXJwMaVfc0JTW0-5" value="show&lt;br&gt;ID" style="ellipse;whiteSpace=wrap;html=1;align=center;fontStyle=4;fillColor=#ffe6cc;strokeColor=#d79b00;" vertex="1" parent="1">
          <mxGeometry x="90" y="140" width="100" height="40" as="geometry" />
        </mxCell>
        <mxCell id="vjnPpZyXJwMaVfc0JTW0-6" value="user&lt;br&gt;ID" style="ellipse;whiteSpace=wrap;html=1;align=center;fontStyle=4;fillColor=#ffe6cc;strokeColor=#d79b00;" vertex="1" parent="1">
          <mxGeometry x="390" y="480" width="100" height="40" as="geometry" />
        </mxCell>
        <mxCell id="vjnPpZyXJwMaVfc0JTW0-7" value="channel&lt;br&gt;ID" style="ellipse;whiteSpace=wrap;html=1;align=center;fontStyle=4;fillColor=#ffe6cc;strokeColor=#d79b00;" vertex="1" parent="1">
          <mxGeometry x="140" y="500" width="100" height="40" as="geometry" />
        </mxCell>
        <mxCell id="vjnPpZyXJwMaVfc0JTW0-8" value="producer&lt;br&gt;ID" style="ellipse;whiteSpace=wrap;html=1;align=center;fontStyle=4;fillColor=#ffe6cc;strokeColor=#d79b00;" vertex="1" parent="1">
          <mxGeometry x="500" y="140" width="100" height="40" as="geometry" />
        </mxCell>
        <mxCell id="vjnPpZyXJwMaVfc0JTW0-9" value="name" style="ellipse;whiteSpace=wrap;html=1;align=center;fillColor=#fff2cc;strokeColor=#d6b656;" vertex="1" parent="1">
          <mxGeometry y="180" width="100" height="40" as="geometry" />
        </mxCell>
        <mxCell id="vjnPpZyXJwMaVfc0JTW0-10" value="name" style="ellipse;whiteSpace=wrap;html=1;align=center;fillColor=#fff2cc;strokeColor=#d6b656;" vertex="1" parent="1">
          <mxGeometry x="-20" y="390" width="100" height="40" as="geometry" />
        </mxCell>
        <mxCell id="vjnPpZyXJwMaVfc0JTW0-11" value="startyear" style="ellipse;whiteSpace=wrap;html=1;align=center;fillColor=#fff2cc;strokeColor=#d6b656;" vertex="1" parent="1">
          <mxGeometry x="-20" y="450" width="100" height="40" as="geometry" />
        </mxCell>
        <mxCell id="vjnPpZyXJwMaVfc0JTW0-12" value="head_Office" style="ellipse;whiteSpace=wrap;html=1;align=center;fillColor=#fff2cc;strokeColor=#d6b656;" vertex="1" parent="1">
          <mxGeometry x="20" y="500" width="100" height="40" as="geometry" />
        </mxCell>
        <mxCell id="vjnPpZyXJwMaVfc0JTW0-13" value="username" style="ellipse;whiteSpace=wrap;html=1;align=center;fillColor=#fff2cc;strokeColor=#d6b656;" vertex="1" parent="1">
          <mxGeometry x="620" y="400" width="100" height="40" as="geometry" />
        </mxCell>
        <mxCell id="vjnPpZyXJwMaVfc0JTW0-14" value="password" style="ellipse;whiteSpace=wrap;html=1;align=center;fillColor=#fff2cc;strokeColor=#d6b656;" vertex="1" parent="1">
          <mxGeometry x="640" y="460" width="100" height="40" as="geometry" />
        </mxCell>
        <mxCell id="vjnPpZyXJwMaVfc0JTW0-15" value="date_Of_Birth" style="ellipse;whiteSpace=wrap;html=1;align=center;fillColor=#fff2cc;strokeColor=#d6b656;" vertex="1" parent="1">
          <mxGeometry x="600" y="500" width="100" height="40" as="geometry" />
        </mxCell>
        <mxCell id="vjnPpZyXJwMaVfc0JTW0-16" value="age" style="ellipse;whiteSpace=wrap;html=1;align=center;dashed=1;fillColor=#ffe6cc;strokeColor=#d79b00;" vertex="1" parent="1">
          <mxGeometry x="490" y="510" width="100" height="40" as="geometry" />
        </mxCell>
        <mxCell id="vjnPpZyXJwMaVfc0JTW0-17" value="basic_Information" style="ellipse;whiteSpace=wrap;html=1;align=center;fillColor=#fff2cc;strokeColor=#d6b656;" vertex="1" parent="1">
          <mxGeometry x="-20" y="250" width="100" height="40" as="geometry" />
        </mxCell>
        <mxCell id="vjnPpZyXJwMaVfc0JTW0-18" value="participant&#39;s&lt;br&gt;name" style="ellipse;shape=doubleEllipse;margin=3;whiteSpace=wrap;html=1;align=center;fillColor=#ffe6cc;strokeColor=#d79b00;" vertex="1" parent="1">
          <mxGeometry y="300" width="100" height="40" as="geometry" />
        </mxCell>
        <mxCell id="vjnPpZyXJwMaVfc0JTW0-20" value="comapny&lt;br&gt;Name" style="ellipse;whiteSpace=wrap;html=1;align=center;fillColor=#fff2cc;strokeColor=#d6b656;" vertex="1" parent="1">
          <mxGeometry x="620" y="180" width="100" height="40" as="geometry" />
        </mxCell>
        <mxCell id="vjnPpZyXJwMaVfc0JTW0-21" value="country" style="ellipse;whiteSpace=wrap;html=1;align=center;fillColor=#fff2cc;strokeColor=#d6b656;" vertex="1" parent="1">
          <mxGeometry x="630" y="240" width="100" height="40" as="geometry" />
        </mxCell>
        <mxCell id="vjnPpZyXJwMaVfc0JTW0-22" value="is_produced" style="shape=rhombus;perimeter=rhombusPerimeter;whiteSpace=wrap;html=1;align=center;fillColor=#d5e8d4;strokeColor=#82b366;" vertex="1" parent="1">
          <mxGeometry x="300" y="210" width="120" height="60" as="geometry" />
        </mxCell>
        <mxCell id="vjnPpZyXJwMaVfc0JTW0-23" value="is_broadcasted" style="shape=rhombus;perimeter=rhombusPerimeter;whiteSpace=wrap;html=1;align=center;fillColor=#d5e8d4;strokeColor=#82b366;" vertex="1" parent="1">
          <mxGeometry x="90" y="330" width="120" height="60" as="geometry" />
        </mxCell>
        <mxCell id="vjnPpZyXJwMaVfc0JTW0-24" value="is_rated" style="shape=rhombus;perimeter=rhombusPerimeter;whiteSpace=wrap;html=1;align=center;fillColor=#d5e8d4;strokeColor=#82b366;" vertex="1" parent="1">
          <mxGeometry x="430" y="300" width="120" height="60" as="geometry" />
        </mxCell>
        <mxCell id="vjnPpZyXJwMaVfc0JTW0-26" value="" style="endArrow=none;html=1;rounded=0;exitX=1;exitY=0.5;exitDx=0;exitDy=0;entryX=0;entryY=0.5;entryDx=0;entryDy=0;" edge="1" parent="1" source="vjnPpZyXJwMaVfc0JTW0-1" target="vjnPpZyXJwMaVfc0JTW0-22">
          <mxGeometry relative="1" as="geometry">
            <mxPoint x="200" y="280" as="sourcePoint" />
            <mxPoint x="360" y="280" as="targetPoint" />
          </mxGeometry>
        </mxCell>
        <mxCell id="vjnPpZyXJwMaVfc0JTW0-27" value="" style="endArrow=none;html=1;rounded=0;exitX=1;exitY=0.5;exitDx=0;exitDy=0;entryX=0;entryY=0.5;entryDx=0;entryDy=0;" edge="1" parent="1" source="vjnPpZyXJwMaVfc0JTW0-22" target="vjnPpZyXJwMaVfc0JTW0-2">
          <mxGeometry relative="1" as="geometry">
            <mxPoint x="410" y="310" as="sourcePoint" />
            <mxPoint x="570" y="310" as="targetPoint" />
          </mxGeometry>
        </mxCell>
        <mxCell id="vjnPpZyXJwMaVfc0JTW0-28" value="" style="endArrow=none;html=1;rounded=0;exitX=0.5;exitY=1;exitDx=0;exitDy=0;entryX=0.5;entryY=0;entryDx=0;entryDy=0;" edge="1" parent="1" source="vjnPpZyXJwMaVfc0JTW0-1" target="vjnPpZyXJwMaVfc0JTW0-23">
          <mxGeometry relative="1" as="geometry">
            <mxPoint x="220" y="310" as="sourcePoint" />
            <mxPoint x="380" y="310" as="targetPoint" />
          </mxGeometry>
        </mxCell>
        <mxCell id="vjnPpZyXJwMaVfc0JTW0-29" value="" style="endArrow=none;html=1;rounded=0;exitX=0.5;exitY=1;exitDx=0;exitDy=0;entryX=0.5;entryY=0;entryDx=0;entryDy=0;" edge="1" parent="1" source="vjnPpZyXJwMaVfc0JTW0-23" target="vjnPpZyXJwMaVfc0JTW0-3">
          <mxGeometry relative="1" as="geometry">
            <mxPoint x="220" y="410" as="sourcePoint" />
            <mxPoint x="380" y="410" as="targetPoint" />
          </mxGeometry>
        </mxCell>
        <mxCell id="vjnPpZyXJwMaVfc0JTW0-30" value="" style="endArrow=none;html=1;rounded=0;exitX=1;exitY=0.75;exitDx=0;exitDy=0;entryX=0;entryY=0.5;entryDx=0;entryDy=0;" edge="1" parent="1" source="vjnPpZyXJwMaVfc0JTW0-1" target="vjnPpZyXJwMaVfc0JTW0-24">
          <mxGeometry relative="1" as="geometry">
            <mxPoint x="230" y="300" as="sourcePoint" />
            <mxPoint x="390" y="300" as="targetPoint" />
            <Array as="points">
              <mxPoint x="250" y="250" />
              <mxPoint x="250" y="330" />
            </Array>
          </mxGeometry>
        </mxCell>
        <mxCell id="vjnPpZyXJwMaVfc0JTW0-31" value="" style="endArrow=none;html=1;rounded=0;exitX=1;exitY=0.5;exitDx=0;exitDy=0;entryX=0.5;entryY=0;entryDx=0;entryDy=0;" edge="1" parent="1" source="vjnPpZyXJwMaVfc0JTW0-24" target="vjnPpZyXJwMaVfc0JTW0-4">
          <mxGeometry relative="1" as="geometry">
            <mxPoint x="480" y="400" as="sourcePoint" />
            <mxPoint x="640" y="400" as="targetPoint" />
          </mxGeometry>
        </mxCell>
        <mxCell id="vjnPpZyXJwMaVfc0JTW0-32" value="" style="endArrow=none;html=1;rounded=0;exitX=0.75;exitY=1;exitDx=0;exitDy=0;entryX=0.5;entryY=0;entryDx=0;entryDy=0;" edge="1" parent="1" source="vjnPpZyXJwMaVfc0JTW0-3" target="vjnPpZyXJwMaVfc0JTW0-7">
          <mxGeometry relative="1" as="geometry">
            <mxPoint x="240" y="500" as="sourcePoint" />
            <mxPoint x="400" y="500" as="targetPoint" />
          </mxGeometry>
        </mxCell>
        <mxCell id="vjnPpZyXJwMaVfc0JTW0-34" value="" style="endArrow=none;html=1;rounded=0;exitX=1;exitY=0.5;exitDx=0;exitDy=0;entryX=0;entryY=0;entryDx=0;entryDy=0;" edge="1" parent="1" source="vjnPpZyXJwMaVfc0JTW0-10" target="vjnPpZyXJwMaVfc0JTW0-3">
          <mxGeometry relative="1" as="geometry">
            <mxPoint x="160" y="400" as="sourcePoint" />
            <mxPoint x="160" y="450" as="targetPoint" />
          </mxGeometry>
        </mxCell>
        <mxCell id="vjnPpZyXJwMaVfc0JTW0-35" value="" style="endArrow=none;html=1;rounded=0;exitX=1;exitY=0.5;exitDx=0;exitDy=0;entryX=0;entryY=0.5;entryDx=0;entryDy=0;" edge="1" parent="1" source="vjnPpZyXJwMaVfc0JTW0-11" target="vjnPpZyXJwMaVfc0JTW0-3">
          <mxGeometry relative="1" as="geometry">
            <mxPoint x="170" y="410" as="sourcePoint" />
            <mxPoint x="170" y="460" as="targetPoint" />
          </mxGeometry>
        </mxCell>
        <mxCell id="vjnPpZyXJwMaVfc0JTW0-36" value="" style="endArrow=none;html=1;rounded=0;exitX=1;exitY=0;exitDx=0;exitDy=0;entryX=0.25;entryY=1;entryDx=0;entryDy=0;" edge="1" parent="1" source="vjnPpZyXJwMaVfc0JTW0-12" target="vjnPpZyXJwMaVfc0JTW0-3">
          <mxGeometry relative="1" as="geometry">
            <mxPoint x="180" y="420" as="sourcePoint" />
            <mxPoint x="180" y="470" as="targetPoint" />
          </mxGeometry>
        </mxCell>
        <mxCell id="vjnPpZyXJwMaVfc0JTW0-37" value="" style="endArrow=none;html=1;rounded=0;exitX=0.5;exitY=1;exitDx=0;exitDy=0;entryX=0.43;entryY=0.075;entryDx=0;entryDy=0;entryPerimeter=0;" edge="1" parent="1" source="vjnPpZyXJwMaVfc0JTW0-5" target="vjnPpZyXJwMaVfc0JTW0-1">
          <mxGeometry relative="1" as="geometry">
            <mxPoint x="160" y="270" as="sourcePoint" />
            <mxPoint x="160" y="340" as="targetPoint" />
          </mxGeometry>
        </mxCell>
        <mxCell id="vjnPpZyXJwMaVfc0JTW0-38" value="" style="endArrow=none;html=1;rounded=0;exitX=1;exitY=0.5;exitDx=0;exitDy=0;entryX=0.25;entryY=0;entryDx=0;entryDy=0;" edge="1" parent="1" source="vjnPpZyXJwMaVfc0JTW0-9" target="vjnPpZyXJwMaVfc0JTW0-1">
          <mxGeometry relative="1" as="geometry">
            <mxPoint x="150" y="190" as="sourcePoint" />
            <mxPoint x="153" y="233" as="targetPoint" />
          </mxGeometry>
        </mxCell>
        <mxCell id="vjnPpZyXJwMaVfc0JTW0-39" value="" style="endArrow=none;html=1;rounded=0;exitX=1;exitY=0.5;exitDx=0;exitDy=0;entryX=0;entryY=1;entryDx=0;entryDy=0;" edge="1" parent="1" source="vjnPpZyXJwMaVfc0JTW0-17" target="vjnPpZyXJwMaVfc0JTW0-1">
          <mxGeometry relative="1" as="geometry">
            <mxPoint x="160" y="200" as="sourcePoint" />
            <mxPoint x="163" y="243" as="targetPoint" />
          </mxGeometry>
        </mxCell>
        <mxCell id="vjnPpZyXJwMaVfc0JTW0-40" value="" style="endArrow=none;html=1;rounded=0;exitX=1;exitY=0.5;exitDx=0;exitDy=0;entryX=0.25;entryY=1;entryDx=0;entryDy=0;" edge="1" parent="1" source="vjnPpZyXJwMaVfc0JTW0-18" target="vjnPpZyXJwMaVfc0JTW0-1">
          <mxGeometry relative="1" as="geometry">
            <mxPoint x="170" y="210" as="sourcePoint" />
            <mxPoint x="173" y="253" as="targetPoint" />
          </mxGeometry>
        </mxCell>
        <mxCell id="vjnPpZyXJwMaVfc0JTW0-41" value="" style="endArrow=none;html=1;rounded=0;exitX=0.5;exitY=1;exitDx=0;exitDy=0;entryX=0.5;entryY=0;entryDx=0;entryDy=0;" edge="1" parent="1" source="vjnPpZyXJwMaVfc0JTW0-8" target="vjnPpZyXJwMaVfc0JTW0-2">
          <mxGeometry relative="1" as="geometry">
            <mxPoint x="430" y="250" as="sourcePoint" />
            <mxPoint x="510" y="250" as="targetPoint" />
          </mxGeometry>
        </mxCell>
        <mxCell id="vjnPpZyXJwMaVfc0JTW0-42" value="" style="endArrow=none;html=1;rounded=0;exitX=0;exitY=0.5;exitDx=0;exitDy=0;entryX=0.83;entryY=-0.05;entryDx=0;entryDy=0;entryPerimeter=0;" edge="1" parent="1" source="vjnPpZyXJwMaVfc0JTW0-20" target="vjnPpZyXJwMaVfc0JTW0-2">
          <mxGeometry relative="1" as="geometry">
            <mxPoint x="560" y="190" as="sourcePoint" />
            <mxPoint x="560" y="230" as="targetPoint" />
          </mxGeometry>
        </mxCell>
        <mxCell id="vjnPpZyXJwMaVfc0JTW0-43" value="" style="endArrow=none;html=1;rounded=0;exitX=-0.01;exitY=0.35;exitDx=0;exitDy=0;exitPerimeter=0;" edge="1" parent="1" source="vjnPpZyXJwMaVfc0JTW0-21">
          <mxGeometry relative="1" as="geometry">
            <mxPoint x="570" y="200" as="sourcePoint" />
            <mxPoint x="600" y="250" as="targetPoint" />
          </mxGeometry>
        </mxCell>
        <mxCell id="vjnPpZyXJwMaVfc0JTW0-44" value="" style="endArrow=none;html=1;rounded=0;exitX=0;exitY=0.5;exitDx=0;exitDy=0;entryX=0.75;entryY=0;entryDx=0;entryDy=0;" edge="1" parent="1" source="vjnPpZyXJwMaVfc0JTW0-13" target="vjnPpZyXJwMaVfc0JTW0-4">
          <mxGeometry relative="1" as="geometry">
            <mxPoint x="570" y="390" as="sourcePoint" />
            <mxPoint x="570" y="430" as="targetPoint" />
          </mxGeometry>
        </mxCell>
        <mxCell id="vjnPpZyXJwMaVfc0JTW0-45" value="" style="endArrow=none;html=1;rounded=0;exitX=0;exitY=0.25;exitDx=0;exitDy=0;entryX=1;entryY=0.5;entryDx=0;entryDy=0;exitPerimeter=0;" edge="1" parent="1" source="vjnPpZyXJwMaVfc0JTW0-14" target="vjnPpZyXJwMaVfc0JTW0-4">
          <mxGeometry relative="1" as="geometry">
            <mxPoint x="580" y="400" as="sourcePoint" />
            <mxPoint x="580" y="440" as="targetPoint" />
          </mxGeometry>
        </mxCell>
        <mxCell id="vjnPpZyXJwMaVfc0JTW0-46" value="" style="endArrow=none;html=1;rounded=0;exitX=0.04;exitY=0.225;exitDx=0;exitDy=0;exitPerimeter=0;" edge="1" parent="1" source="vjnPpZyXJwMaVfc0JTW0-15">
          <mxGeometry relative="1" as="geometry">
            <mxPoint x="590" y="410" as="sourcePoint" />
            <mxPoint x="600" y="480" as="targetPoint" />
          </mxGeometry>
        </mxCell>
        <mxCell id="vjnPpZyXJwMaVfc0JTW0-47" value="" style="endArrow=none;html=1;rounded=0;exitX=0.5;exitY=0;exitDx=0;exitDy=0;entryX=0.5;entryY=1;entryDx=0;entryDy=0;" edge="1" parent="1" source="vjnPpZyXJwMaVfc0JTW0-16" target="vjnPpZyXJwMaVfc0JTW0-4">
          <mxGeometry relative="1" as="geometry">
            <mxPoint x="600" y="420" as="sourcePoint" />
            <mxPoint x="600" y="460" as="targetPoint" />
          </mxGeometry>
        </mxCell>
        <mxCell id="vjnPpZyXJwMaVfc0JTW0-48" value="" style="endArrow=none;html=1;rounded=0;exitX=1;exitY=0.5;exitDx=0;exitDy=0;entryX=0.18;entryY=1.025;entryDx=0;entryDy=0;entryPerimeter=0;" edge="1" parent="1" source="vjnPpZyXJwMaVfc0JTW0-6" target="vjnPpZyXJwMaVfc0JTW0-4">
          <mxGeometry relative="1" as="geometry">
            <mxPoint x="610" y="430" as="sourcePoint" />
            <mxPoint x="610" y="470" as="targetPoint" />
          </mxGeometry>
        </mxCell>
        <mxCell id="vjnPpZyXJwMaVfc0JTW0-49" value="M" style="text;html=1;strokeColor=none;fillColor=none;align=center;verticalAlign=middle;whiteSpace=wrap;rounded=0;" vertex="1" parent="1">
          <mxGeometry x="180" y="220" width="60" height="30" as="geometry" />
        </mxCell>
        <mxCell id="vjnPpZyXJwMaVfc0JTW0-50" value="M" style="text;html=1;strokeColor=none;fillColor=none;align=center;verticalAlign=middle;whiteSpace=wrap;rounded=0;" vertex="1" parent="1">
          <mxGeometry x="130" y="255" width="60" height="30" as="geometry" />
        </mxCell>
        <mxCell id="vjnPpZyXJwMaVfc0JTW0-51" value="M" style="text;html=1;strokeColor=none;fillColor=none;align=center;verticalAlign=middle;whiteSpace=wrap;rounded=0;" vertex="1" parent="1">
          <mxGeometry x="530" y="420" width="60" height="30" as="geometry" />
        </mxCell>
        <mxCell id="vjnPpZyXJwMaVfc0JTW0-52" value="1" style="text;html=1;strokeColor=none;fillColor=none;align=center;verticalAlign=middle;whiteSpace=wrap;rounded=0;" vertex="1" parent="1">
          <mxGeometry x="460" y="220" width="60" height="30" as="geometry" />
        </mxCell>
        <mxCell id="vjnPpZyXJwMaVfc0JTW0-53" value="1" style="text;html=1;strokeColor=none;fillColor=none;align=center;verticalAlign=middle;whiteSpace=wrap;rounded=0;" vertex="1" parent="1">
          <mxGeometry x="180" y="250" width="60" height="30" as="geometry" />
        </mxCell>
        <mxCell id="vjnPpZyXJwMaVfc0JTW0-54" value="1" style="text;html=1;strokeColor=none;fillColor=none;align=center;verticalAlign=middle;whiteSpace=wrap;rounded=0;" vertex="1" parent="1">
          <mxGeometry x="130" y="420" width="60" height="30" as="geometry" />
        </mxCell>
      </root>
    </mxGraphModel>
  </diagram>
</mxfile>
